<?xml version="1.0" encoding="UTF-8"?><svg id="Capa_1" xmlns="http://www.w3.org/2000/svg" viewBox="0 0 607.44 768"><defs><style>.cls-1{fill:#06052e;}.cls-2{fill:red;}.cls-3{fill:#fdf29e;}.cls-4{font-family:GlacialIndifference-Regular, 'Glacial Indifference';font-size:33.8px;}.cls-5{font-family:Poppins-SemiBold, Poppins;font-size:50px;font-weight:600;}</style></defs><g><path class="cls-1" d="M61,248.54c-1.01,4.49-5.24,5.67-7.88,4.57-2.47-1.02-3.67-2.93-3.89-5.53-.03-.36,0-.72,0-1.08,0-23.03,0-46.05-.01-69.08,0-.47,.33-1.22-.34-1.35-.69-.13-.65,.7-.77,1.14-2.33,7.88-3.2,15.9-2.32,24.09,.39,3.59-2.26,5.99-5.67,5.16-1.73-.43-2.93-1.72-3.16-3.62-.88-7.17-.52-14.31,.86-21.39,1.08-5.57,2.81-10.93,5.21-16.07,1.71-3.66,4.62-5.63,8.67-5.66,7.17-.05,14.34-.06,21.51,0,3.79,.03,6.68,1.79,8.34,5.21,3.48,7.19,5.55,14.8,6.39,22.74,.52,4.89,.51,9.78,.01,14.67-.28,2.73-2.19,4.49-4.74,4.29-2.67-.2-4.4-2.16-4.16-4.96,.51-5.9,.4-11.78-.69-17.61-.48-2.54-.99-5.07-1.93-7.49,0-.34-.14-.55-.49-.5-.28,.03-.37,.27-.38,.53-.01,.28,0,.56,0,.84,0,23.23,0,46.45,0,69.68,0,.32,.03,.64,.05,.95-.8,3.89-3.66,6.01-7.13,5.29-2.8-.58-4.68-3.07-4.68-6.24,0-14.18,0-28.35,0-42.53,0-.24,0-.48,0-.72-.01-1.33-.47-1.95-1.42-1.93-.97,.03-1.4,.73-1.29,2.09-.02,.47-.07,.95-.07,1.42,0,14.36,0,28.72,0,43.08Z"/><path class="cls-1" d="M73.2,147.06c-.04,6.06-4.84,10.83-10.89,10.82-5.89,0-10.75-4.93-10.73-10.88,.02-5.86,4.91-10.77,10.72-10.77,6.04,0,10.93,4.86,10.89,10.83Z"/><path class="cls-1" d="M129.12,248.54c-1.01,4.49-5.24,5.67-7.88,4.57-2.47-1.02-3.67-2.93-3.89-5.53-.03-.36,0-.72,0-1.08,0-23.03,0-46.05-.01-69.08,0-.47,.33-1.22-.34-1.35-.69-.13-.65,.7-.77,1.14-2.33,7.88-3.2,15.9-2.32,24.09,.39,3.59-2.26,5.99-5.67,5.16-1.73-.43-2.93-1.72-3.16-3.62-.88-7.17-.52-14.31,.86-21.39,1.08-5.57,2.81-10.93,5.21-16.07,1.71-3.66,4.62-5.63,8.67-5.66,7.17-.05,14.34-.06,21.51,0,3.79,.03,6.68,1.79,8.34,5.21,3.48,7.19,5.55,14.8,6.39,22.74,.52,4.89,.51,9.78,.01,14.67-.28,2.73-2.19,4.49-4.74,4.29-2.67-.2-4.4-2.16-4.16-4.96,.51-5.9,.4-11.78-.69-17.61-.48-2.54-.99-5.07-1.93-7.49,0-.34-.14-.55-.49-.5-.28,.03-.37,.27-.38,.53-.01,.28,0,.56,0,.84,0,23.23,0,46.45,0,69.68,0,.32,.03,.64,.05,.95-.8,3.89-3.66,6.01-7.13,5.29-2.8-.58-4.68-3.07-4.68-6.24,0-14.18,0-28.35,0-42.53,0-.24,0-.48,0-.72-.01-1.33-.47-1.95-1.42-1.93-.97,.03-1.4,.73-1.29,2.09-.02,.47-.07,.95-.07,1.42,0,14.36,0,28.72,0,43.08Z"/><path class="cls-1" d="M141.32,147.06c-.04,6.06-4.84,10.83-10.89,10.82-5.89,0-10.75-4.93-10.73-10.88,.02-5.86,4.91-10.77,10.72-10.77,6.04,0,10.93,4.86,10.89,10.83Z"/><path class="cls-2" d="M197.25,248.74c-1.01,4.49-5.24,5.67-7.88,4.57-2.47-1.02-3.67-2.93-3.89-5.53-.03-.36,0-.72,0-1.08,0-23.03,0-46.05-.01-69.08,0-.47,.33-1.22-.34-1.35-.69-.13-.65,.7-.77,1.14-2.33,7.88-3.2,15.9-2.32,24.09,.39,3.59-2.26,5.99-5.67,5.16-1.73-.43-2.93-1.72-3.16-3.62-.88-7.17-.52-14.31,.86-21.39,1.08-5.57,2.81-10.93,5.21-16.07,1.71-3.66,4.62-5.63,8.67-5.66,7.17-.05,14.34-.06,21.51,0,3.79,.03,6.68,1.79,8.34,5.21,3.48,7.19,5.55,14.8,6.39,22.74,.52,4.89,.51,9.78,.01,14.67-.28,2.73-2.19,4.49-4.74,4.29-2.67-.2-4.4-2.16-4.16-4.96,.51-5.9,.4-11.78-.69-17.61-.48-2.54-.99-5.07-1.93-7.49,0-.34-.14-.55-.49-.5-.28,.03-.37,.27-.38,.53-.01,.28,0,.56,0,.84,0,23.23,0,46.45,0,69.68,0,.32,.03,.64,.05,.95-.8,3.89-3.66,6.01-7.13,5.29-2.8-.58-4.68-3.07-4.68-6.24,0-14.18,0-28.35,0-42.53,0-.24,0-.48,0-.72-.01-1.33-.47-1.95-1.42-1.93-.97,.03-1.4,.73-1.29,2.09-.02,.47-.07,.95-.07,1.42,0,14.36,0,28.72,0,43.08Z"/><path class="cls-2" d="M209.44,147.26c-.04,6.06-4.84,10.83-10.89,10.82-5.89,0-10.75-4.93-10.73-10.88,.02-5.86,4.91-10.77,10.72-10.77,6.04,0,10.93,4.86,10.89,10.83Z"/><path class="cls-2" d="M265.37,248.74c-1.01,4.49-5.24,5.67-7.88,4.57-2.47-1.02-3.67-2.93-3.89-5.53-.03-.36,0-.72,0-1.08,0-23.03,0-46.05-.01-69.08,0-.47,.33-1.22-.34-1.35-.69-.13-.65,.7-.77,1.14-2.33,7.88-3.2,15.9-2.32,24.09,.39,3.59-2.26,5.99-5.67,5.16-1.73-.43-2.93-1.72-3.16-3.62-.88-7.17-.52-14.31,.86-21.39,1.08-5.57,2.81-10.93,5.21-16.07,1.71-3.66,4.62-5.63,8.67-5.66,7.17-.05,14.34-.06,21.51,0,3.79,.03,6.68,1.79,8.34,5.21,3.48,7.19,5.55,14.8,6.39,22.74,.52,4.89,.51,9.78,.01,14.67-.28,2.73-2.19,4.49-4.74,4.29-2.67-.2-4.4-2.16-4.16-4.96,.51-5.9,.4-11.78-.69-17.61-.48-2.54-.99-5.07-1.93-7.49,0-.34-.14-.55-.49-.5-.28,.03-.37,.27-.38,.53-.01,.28,0,.56,0,.84,0,23.23,0,46.45,0,69.68,0,.32,.03,.64,.05,.95-.8,3.89-3.66,6.01-7.13,5.29-2.8-.58-4.68-3.07-4.68-6.24,0-14.18,0-28.35,0-42.53,0-.24,0-.48,0-.72-.01-1.33-.47-1.95-1.42-1.93-.97,.03-1.4,.73-1.29,2.09-.02,.47-.07,.95-.07,1.42,0,14.36,0,28.72,0,43.08Z"/><path class="cls-2" d="M277.57,147.26c-.04,6.06-4.84,10.83-10.89,10.82-5.89,0-10.75-4.93-10.73-10.88,.02-5.86,4.91-10.77,10.72-10.77,6.04,0,10.93,4.86,10.89,10.83Z"/><path class="cls-2" d="M333.49,248.93c-1.01,4.49-5.24,5.67-7.88,4.57-2.47-1.02-3.67-2.93-3.89-5.53-.03-.36,0-.72,0-1.08,0-23.03,0-46.05-.01-69.08,0-.47,.33-1.22-.34-1.35-.69-.13-.65,.7-.77,1.14-2.33,7.88-3.2,15.9-2.32,24.09,.39,3.59-2.26,5.99-5.67,5.16-1.73-.43-2.93-1.72-3.16-3.62-.88-7.17-.52-14.31,.86-21.39,1.08-5.57,2.81-10.93,5.21-16.07,1.71-3.66,4.62-5.63,8.67-5.66,7.17-.05,14.34-.06,21.51,0,3.79,.03,6.68,1.79,8.34,5.21,3.48,7.19,5.55,14.8,6.39,22.74,.52,4.89,.51,9.78,.01,14.67-.28,2.73-2.19,4.49-4.74,4.29-2.67-.2-4.4-2.16-4.16-4.96,.51-5.9,.4-11.78-.69-17.61-.48-2.54-.99-5.07-1.93-7.49,0-.34-.14-.55-.49-.5-.28,.03-.37,.27-.38,.53-.01,.28,0,.56,0,.84,0,23.23,0,46.45,0,69.68,0,.32,.03,.64,.05,.95-.8,3.89-3.66,6.01-7.13,5.29-2.8-.58-4.68-3.07-4.68-6.24,0-14.18,0-28.35,0-42.53,0-.24,0-.48,0-.72-.01-1.33-.47-1.95-1.42-1.93-.97,.03-1.4,.73-1.29,2.09-.02,.47-.07,.95-.07,1.42,0,14.36,0,28.72,0,43.08Z"/><path class="cls-2" d="M345.69,147.45c-.04,6.06-4.84,10.83-10.89,10.82-5.89,0-10.75-4.93-10.73-10.88,.02-5.86,4.91-10.77,10.72-10.77,6.04,0,10.93,4.86,10.89,10.83Z"/><path class="cls-2" d="M401.61,248.93c-1.01,4.49-5.24,5.67-7.88,4.57-2.47-1.02-3.67-2.93-3.89-5.53-.03-.36,0-.72,0-1.08,0-23.03,0-46.05-.01-69.08,0-.47,.33-1.22-.34-1.35-.69-.13-.65,.7-.77,1.14-2.33,7.88-3.2,15.9-2.32,24.09,.39,3.59-2.26,5.99-5.67,5.16-1.73-.43-2.93-1.72-3.16-3.62-.88-7.17-.52-14.31,.86-21.39,1.08-5.57,2.81-10.93,5.21-16.07,1.71-3.66,4.62-5.63,8.67-5.66,7.17-.05,14.34-.06,21.51,0,3.79,.03,6.68,1.79,8.34,5.21,3.48,7.19,5.55,14.8,6.39,22.74,.52,4.89,.51,9.78,.01,14.67-.28,2.73-2.19,4.49-4.74,4.29-2.67-.2-4.4-2.16-4.16-4.96,.51-5.9,.4-11.78-.69-17.61-.48-2.54-.99-5.07-1.93-7.49,0-.34-.14-.55-.49-.5-.28,.03-.37,.27-.38,.53-.01,.28,0,.56,0,.84,0,23.23,0,46.45,0,69.68,0,.32,.03,.64,.05,.95-.8,3.89-3.66,6.01-7.13,5.29-2.8-.58-4.68-3.07-4.68-6.24,0-14.18,0-28.35,0-42.53,0-.24,0-.48,0-.72-.01-1.33-.47-1.95-1.42-1.93-.97,.03-1.4,.73-1.29,2.09-.02,.47-.07,.95-.07,1.42,0,14.36,0,28.72,0,43.08Z"/><path class="cls-2" d="M413.81,147.45c-.04,6.06-4.84,10.83-10.89,10.82-5.89,0-10.75-4.93-10.73-10.88,.02-5.86,4.91-10.77,10.72-10.77,6.04,0,10.93,4.86,10.89,10.83Z"/><path class="cls-3" d="M469.74,249.13c-1.01,4.49-5.24,5.67-7.88,4.57-2.47-1.02-3.67-2.93-3.89-5.53-.03-.36,0-.72,0-1.08,0-23.03,0-46.05-.01-69.08,0-.47,.33-1.22-.34-1.35-.69-.13-.65,.7-.77,1.14-2.33,7.88-3.2,15.9-2.32,24.09,.39,3.59-2.26,5.99-5.67,5.16-1.73-.43-2.93-1.72-3.16-3.62-.88-7.17-.52-14.31,.86-21.39,1.08-5.57,2.81-10.93,5.21-16.07,1.71-3.66,4.62-5.63,8.67-5.66,7.17-.05,14.34-.06,21.51,0,3.79,.03,6.68,1.79,8.34,5.21,3.48,7.19,5.55,14.8,6.39,22.74,.52,4.89,.51,9.78,.01,14.67-.28,2.73-2.19,4.49-4.74,4.29-2.67-.2-4.4-2.16-4.16-4.96,.51-5.9,.4-11.78-.69-17.61-.48-2.54-.99-5.07-1.93-7.49,0-.34-.14-.55-.49-.5-.28,.03-.37,.27-.38,.53-.01,.28,0,.56,0,.84,0,23.23,0,46.45,0,69.68,0,.32,.03,.64,.05,.95-.8,3.89-3.66,6.01-7.13,5.29-2.8-.58-4.68-3.07-4.68-6.24,0-14.18,0-28.35,0-42.53,0-.24,0-.48,0-.72-.01-1.33-.47-1.95-1.42-1.93-.97,.03-1.4,.73-1.29,2.09-.02,.47-.07,.95-.07,1.42,0,14.36,0,28.72,0,43.08Z"/><path class="cls-3" d="M481.93,147.65c-.04,6.06-4.84,10.83-10.89,10.82-5.89,0-10.75-4.93-10.73-10.88,.02-5.86,4.91-10.77,10.72-10.77,6.04,0,10.93,4.86,10.89,10.83Z"/><path class="cls-3" d="M537.86,249.13c-1.01,4.49-5.24,5.67-7.88,4.57-2.47-1.02-3.67-2.93-3.89-5.53-.03-.36,0-.72,0-1.08,0-23.03,0-46.05-.01-69.08,0-.47,.33-1.22-.34-1.35-.69-.13-.65,.7-.77,1.14-2.33,7.88-3.2,15.9-2.32,24.09,.39,3.59-2.26,5.99-5.67,5.16-1.73-.43-2.93-1.72-3.16-3.62-.88-7.17-.52-14.31,.86-21.39,1.08-5.57,2.81-10.93,5.21-16.07,1.71-3.66,4.62-5.63,8.67-5.66,7.17-.05,14.34-.06,21.51,0,3.79,.03,6.68,1.79,8.34,5.21,3.48,7.19,5.55,14.8,6.39,22.74,.52,4.89,.51,9.78,.01,14.67-.28,2.73-2.19,4.49-4.74,4.29-2.67-.2-4.4-2.16-4.16-4.96,.51-5.9,.4-11.78-.69-17.61-.48-2.54-.99-5.07-1.93-7.49,0-.34-.14-.55-.49-.5-.28,.03-.37,.27-.38,.53-.01,.28,0,.56,0,.84,0,23.23,0,46.45,0,69.68,0,.32,.03,.64,.05,.95-.8,3.89-3.66,6.01-7.13,5.29-2.8-.58-4.68-3.07-4.68-6.24,0-14.18,0-28.35,0-42.53,0-.24,0-.48,0-.72-.01-1.33-.47-1.95-1.42-1.93-.97,.03-1.4,.73-1.29,2.09-.02,.47-.07,.95-.07,1.42,0,14.36,0,28.72,0,43.08Z"/><path class="cls-3" d="M550.06,147.65c-.04,6.06-4.84,10.83-10.89,10.82-5.89,0-10.75-4.93-10.73-10.88,.02-5.86,4.91-10.77,10.72-10.77,6.04,0,10.93,4.86,10.89,10.83Z"/><path class="cls-3" d="M61.38,384.45c-1.01,4.49-5.24,5.67-7.88,4.57-2.47-1.02-3.67-2.93-3.89-5.53-.03-.36,0-.72,0-1.08,0-23.03,0-46.05-.01-69.08,0-.47,.33-1.22-.34-1.35-.69-.13-.65,.7-.77,1.14-2.33,7.88-3.2,15.9-2.32,24.09,.39,3.59-2.26,5.99-5.67,5.16-1.73-.43-2.93-1.72-3.16-3.62-.88-7.17-.52-14.31,.86-21.39,1.08-5.57,2.81-10.93,5.21-16.07,1.71-3.66,4.62-5.63,8.67-5.66,7.17-.05,14.34-.06,21.51,0,3.79,.03,6.68,1.79,8.34,5.21,3.48,7.19,5.55,14.8,6.39,22.74,.52,4.89,.51,9.78,.01,14.67-.28,2.73-2.19,4.49-4.74,4.29-2.67-.2-4.4-2.16-4.16-4.96,.51-5.9,.4-11.78-.69-17.61-.48-2.54-.99-5.07-1.93-7.49,0-.34-.14-.55-.49-.5-.28,.03-.37,.27-.38,.53-.01,.28,0,.56,0,.84,0,23.23,0,46.45,0,69.68,0,.32,.03,.64,.05,.95-.8,3.89-3.66,6.01-7.13,5.29-2.8-.58-4.68-3.07-4.68-6.24,0-14.18,0-28.35,0-42.53,0-.24,0-.48,0-.72-.01-1.33-.47-1.95-1.42-1.93-.97,.03-1.4,.73-1.29,2.09-.02,.47-.07,.95-.07,1.42,0,14.36,0,28.72,0,43.08Z"/><path class="cls-3" d="M73.58,282.97c-.04,6.06-4.84,10.83-10.89,10.82-5.89,0-10.75-4.93-10.73-10.88,.02-5.86,4.91-10.77,10.72-10.77,6.04,0,10.93,4.86,10.89,10.83Z"/><path class="cls-3" d="M129.51,384.45c-1.01,4.49-5.24,5.67-7.88,4.57-2.47-1.02-3.67-2.93-3.89-5.53-.03-.36,0-.72,0-1.08,0-23.03,0-46.05-.01-69.08,0-.47,.33-1.22-.34-1.35-.69-.13-.65,.7-.77,1.14-2.33,7.88-3.2,15.9-2.32,24.09,.39,3.59-2.26,5.99-5.67,5.16-1.73-.43-2.93-1.72-3.16-3.62-.88-7.17-.52-14.31,.86-21.39,1.08-5.57,2.81-10.93,5.21-16.07,1.71-3.66,4.62-5.63,8.67-5.66,7.17-.05,14.34-.06,21.51,0,3.79,.03,6.68,1.79,8.34,5.21,3.48,7.19,5.55,14.8,6.39,22.74,.52,4.89,.51,9.78,.01,14.67-.28,2.73-2.19,4.49-4.74,4.29-2.67-.2-4.4-2.16-4.16-4.96,.51-5.9,.4-11.78-.69-17.61-.48-2.54-.99-5.07-1.93-7.49,0-.34-.14-.55-.49-.5-.28,.03-.37,.27-.38,.53-.01,.28,0,.56,0,.84,0,23.23,0,46.45,0,69.68,0,.32,.03,.64,.05,.95-.8,3.89-3.66,6.01-7.13,5.29-2.8-.58-4.68-3.07-4.68-6.24,0-14.18,0-28.35,0-42.53,0-.24,0-.48,0-.72-.01-1.33-.47-1.95-1.42-1.93-.97,.03-1.4,.73-1.29,2.09-.02,.47-.07,.95-.07,1.42,0,14.36,0,28.72,0,43.08Z"/><path class="cls-3" d="M141.7,282.97c-.04,6.06-4.84,10.83-10.89,10.82-5.89,0-10.75-4.93-10.73-10.88,.02-5.86,4.91-10.77,10.72-10.77,6.04,0,10.93,4.86,10.89,10.83Z"/><path class="cls-3" d="M197.63,384.65c-1.01,4.49-5.24,5.67-7.88,4.57-2.47-1.02-3.67-2.93-3.89-5.53-.03-.36,0-.72,0-1.08,0-23.03,0-46.05-.01-69.08,0-.47,.33-1.22-.34-1.35-.69-.13-.65,.7-.77,1.14-2.33,7.88-3.2,15.9-2.32,24.09,.39,3.59-2.26,5.99-5.67,5.16-1.73-.43-2.93-1.72-3.16-3.62-.88-7.17-.52-14.31,.86-21.39,1.08-5.57,2.81-10.93,5.21-16.07,1.71-3.66,4.62-5.63,8.67-5.66,7.17-.05,14.34-.06,21.51,0,3.79,.03,6.68,1.79,8.34,5.21,3.48,7.19,5.55,14.8,6.39,22.74,.52,4.89,.51,9.78,.01,14.67-.28,2.73-2.19,4.49-4.74,4.29-2.67-.2-4.4-2.16-4.16-4.96,.51-5.9,.4-11.78-.69-17.61-.48-2.54-.99-5.07-1.93-7.49,0-.34-.14-.55-.49-.5-.28,.03-.37,.27-.38,.53-.01,.28,0,.56,0,.84,0,23.23,0,46.45,0,69.68,0,.32,.03,.64,.05,.95-.8,3.89-3.66,6.01-7.13,5.29-2.8-.58-4.68-3.07-4.68-6.24,0-14.18,0-28.35,0-42.53,0-.24,0-.48,0-.72-.01-1.33-.47-1.95-1.42-1.93-.97,.03-1.4,.73-1.29,2.09-.02,.47-.07,.95-.07,1.42,0,14.36,0,28.72,0,43.08Z"/><path class="cls-3" d="M209.83,283.17c-.04,6.06-4.84,10.83-10.89,10.82-5.89,0-10.75-4.93-10.73-10.88,.02-5.86,4.91-10.77,10.72-10.77,6.04,0,10.93,4.86,10.89,10.83Z"/><path class="cls-3" d="M265.75,384.65c-1.01,4.49-5.24,5.67-7.88,4.57-2.47-1.02-3.67-2.93-3.89-5.53-.03-.36,0-.72,0-1.08,0-23.03,0-46.05-.01-69.08,0-.47,.33-1.22-.34-1.35-.69-.13-.65,.7-.77,1.14-2.33,7.88-3.2,15.9-2.32,24.09,.39,3.59-2.26,5.99-5.67,5.16-1.73-.43-2.93-1.72-3.16-3.62-.88-7.17-.52-14.31,.86-21.39,1.08-5.57,2.81-10.93,5.21-16.07,1.71-3.66,4.62-5.63,8.67-5.66,7.17-.05,14.34-.06,21.51,0,3.79,.03,6.68,1.79,8.34,5.21,3.48,7.19,5.55,14.8,6.39,22.74,.52,4.89,.51,9.78,.01,14.67-.28,2.73-2.19,4.49-4.74,4.29-2.67-.2-4.4-2.16-4.16-4.96,.51-5.9,.4-11.78-.69-17.61-.48-2.54-.99-5.07-1.93-7.49,0-.34-.14-.55-.49-.5-.28,.03-.37,.27-.38,.53-.01,.28,0,.56,0,.84,0,23.23,0,46.45,0,69.68,0,.32,.03,.64,.05,.95-.8,3.89-3.66,6.01-7.13,5.29-2.8-.58-4.68-3.07-4.68-6.24,0-14.18,0-28.35,0-42.53,0-.24,0-.48,0-.72-.01-1.33-.47-1.95-1.42-1.93-.97,.03-1.4,.73-1.29,2.09-.02,.47-.07,.95-.07,1.42,0,14.36,0,28.72,0,43.08Z"/><path class="cls-3" d="M277.95,283.17c-.04,6.06-4.84,10.83-10.89,10.82-5.89,0-10.75-4.93-10.73-10.88,.02-5.86,4.91-10.77,10.72-10.77,6.04,0,10.93,4.86,10.89,10.83Z"/><path class="cls-3" d="M333.88,384.83c-1.01,4.49-5.24,5.67-7.88,4.57-2.47-1.02-3.67-2.93-3.89-5.53-.03-.36,0-.72,0-1.08,0-23.03,0-46.05-.01-69.08,0-.47,.33-1.22-.34-1.35-.69-.13-.65,.7-.77,1.14-2.33,7.88-3.2,15.9-2.32,24.09,.39,3.59-2.26,5.99-5.67,5.16-1.73-.43-2.93-1.72-3.16-3.62-.88-7.17-.52-14.31,.86-21.39,1.08-5.57,2.81-10.93,5.21-16.07,1.71-3.66,4.62-5.63,8.67-5.66,7.17-.05,14.34-.06,21.51,0,3.79,.03,6.68,1.79,8.34,5.21,3.48,7.19,5.55,14.8,6.39,22.74,.52,4.89,.51,9.78,.01,14.67-.28,2.73-2.19,4.49-4.74,4.29-2.67-.2-4.4-2.16-4.16-4.96,.51-5.9,.4-11.78-.69-17.61-.48-2.54-.99-5.07-1.93-7.49,0-.34-.14-.55-.49-.5-.28,.03-.37,.27-.38,.53-.01,.28,0,.56,0,.84,0,23.23,0,46.45,0,69.68,0,.32,.03,.64,.05,.95-.8,3.89-3.66,6.01-7.13,5.29-2.8-.58-4.68-3.07-4.68-6.24,0-14.18,0-28.35,0-42.53,0-.24,0-.48,0-.72-.01-1.33-.47-1.95-1.42-1.93-.97,.03-1.4,.73-1.29,2.09-.02,.47-.07,.95-.07,1.42,0,14.36,0,28.72,0,43.08Z"/><path class="cls-3" d="M346.07,283.35c-.04,6.06-4.84,10.83-10.89,10.82-5.89,0-10.75-4.93-10.73-10.88,.02-5.86,4.91-10.77,10.72-10.77,6.04,0,10.93,4.86,10.89,10.83Z"/><path class="cls-3" d="M402,384.83c-1.01,4.49-5.24,5.67-7.88,4.57-2.47-1.02-3.67-2.93-3.89-5.53-.03-.36,0-.72,0-1.08,0-23.03,0-46.05-.01-69.08,0-.47,.33-1.22-.34-1.35-.69-.13-.65,.7-.77,1.14-2.33,7.88-3.2,15.9-2.32,24.09,.39,3.59-2.26,5.99-5.67,5.16-1.73-.43-2.93-1.72-3.16-3.62-.88-7.17-.52-14.31,.86-21.39,1.08-5.57,2.81-10.93,5.21-16.07,1.71-3.66,4.62-5.63,8.67-5.66,7.17-.05,14.34-.06,21.51,0,3.79,.03,6.68,1.79,8.34,5.21,3.48,7.19,5.55,14.8,6.39,22.74,.52,4.89,.51,9.78,.01,14.67-.28,2.73-2.19,4.49-4.74,4.29-2.67-.2-4.4-2.16-4.16-4.96,.51-5.9,.4-11.78-.69-17.61-.48-2.54-.99-5.07-1.93-7.49,0-.34-.14-.55-.49-.5-.28,.03-.37,.27-.38,.53-.01,.28,0,.56,0,.84,0,23.23,0,46.45,0,69.68,0,.32,.03,.64,.05,.95-.8,3.89-3.66,6.01-7.13,5.29-2.8-.58-4.68-3.07-4.68-6.24,0-14.18,0-28.35,0-42.53,0-.24,0-.48,0-.72-.01-1.33-.47-1.95-1.42-1.93-.97,.03-1.4,.73-1.29,2.09-.02,.47-.07,.95-.07,1.42,0,14.36,0,28.72,0,43.08Z"/><path class="cls-3" d="M414.2,283.35c-.04,6.06-4.84,10.83-10.89,10.82-5.89,0-10.75-4.93-10.73-10.88,.02-5.86,4.91-10.77,10.72-10.77,6.04,0,10.93,4.86,10.89,10.83Z"/><path class="cls-3" d="M470.12,385.04c-1.01,4.49-5.24,5.67-7.88,4.57-2.47-1.02-3.67-2.93-3.89-5.53-.03-.36,0-.72,0-1.08,0-23.03,0-46.05-.01-69.08,0-.47,.33-1.22-.34-1.35-.69-.13-.65,.7-.77,1.14-2.33,7.88-3.2,15.9-2.32,24.09,.39,3.59-2.26,5.99-5.67,5.16-1.73-.43-2.93-1.72-3.16-3.62-.88-7.17-.52-14.31,.86-21.39,1.08-5.57,2.81-10.93,5.21-16.07,1.71-3.66,4.62-5.63,8.67-5.66,7.17-.05,14.34-.06,21.51,0,3.79,.03,6.68,1.79,8.34,5.21,3.48,7.19,5.55,14.8,6.39,22.74,.52,4.89,.51,9.78,.01,14.67-.28,2.73-2.19,4.49-4.74,4.29-2.67-.2-4.4-2.16-4.16-4.96,.51-5.9,.4-11.78-.69-17.61-.48-2.54-.99-5.07-1.93-7.49,0-.34-.14-.55-.49-.5-.28,.03-.37,.27-.38,.53-.01,.28,0,.56,0,.84,0,23.23,0,46.45,0,69.68,0,.32,.03,.64,.05,.95-.8,3.89-3.66,6.01-7.13,5.29-2.8-.58-4.68-3.07-4.68-6.24,0-14.18,0-28.35,0-42.53,0-.24,0-.48,0-.72-.01-1.33-.47-1.95-1.42-1.93-.97,.03-1.4,.73-1.29,2.09-.02,.47-.07,.95-.07,1.42,0,14.36,0,28.72,0,43.08Z"/><path class="cls-3" d="M482.32,283.56c-.04,6.06-4.84,10.83-10.89,10.82-5.89,0-10.75-4.93-10.73-10.88,.02-5.86,4.91-10.77,10.72-10.77,6.04,0,10.93,4.86,10.89,10.83Z"/><path class="cls-3" d="M538.24,385.04c-1.01,4.49-5.24,5.67-7.88,4.57-2.47-1.02-3.67-2.93-3.89-5.53-.03-.36,0-.72,0-1.08,0-23.03,0-46.05-.01-69.08,0-.47,.33-1.22-.34-1.35-.69-.13-.65,.7-.77,1.14-2.33,7.88-3.2,15.9-2.32,24.09,.39,3.59-2.26,5.99-5.67,5.16-1.73-.43-2.93-1.72-3.16-3.62-.88-7.17-.52-14.31,.86-21.39,1.08-5.57,2.81-10.93,5.21-16.07,1.71-3.66,4.62-5.63,8.67-5.66,7.17-.05,14.34-.06,21.51,0,3.79,.03,6.68,1.79,8.34,5.21,3.48,7.19,5.55,14.8,6.39,22.74,.52,4.89,.51,9.78,.01,14.67-.28,2.73-2.19,4.49-4.74,4.29-2.67-.2-4.4-2.16-4.16-4.96,.51-5.9,.4-11.78-.69-17.61-.48-2.54-.99-5.07-1.93-7.49,0-.34-.14-.55-.49-.5-.28,.03-.37,.27-.38,.53-.01,.28,0,.56,0,.84,0,23.23,0,46.45,0,69.68,0,.32,.03,.64,.05,.95-.8,3.89-3.66,6.01-7.13,5.29-2.8-.58-4.68-3.07-4.68-6.24,0-14.18,0-28.35,0-42.53,0-.24,0-.48,0-.72-.01-1.33-.47-1.95-1.42-1.93-.97,.03-1.4,.73-1.29,2.09-.02,.47-.07,.95-.07,1.42,0,14.36,0,28.72,0,43.08Z"/><path class="cls-3" d="M550.44,283.56c-.04,6.06-4.84,10.83-10.89,10.82-5.89,0-10.75-4.93-10.73-10.88,.02-5.86,4.91-10.77,10.72-10.77,6.04,0,10.93,4.86,10.89,10.83Z"/><path class="cls-3" d="M61.38,520.95c-1.01,4.49-5.24,5.67-7.88,4.57-2.47-1.02-3.67-2.93-3.89-5.53-.03-.36,0-.72,0-1.08,0-23.03,0-46.05-.01-69.08,0-.47,.33-1.22-.34-1.35-.69-.13-.65,.7-.77,1.14-2.33,7.88-3.2,15.9-2.32,24.09,.39,3.59-2.26,5.99-5.67,5.16-1.73-.43-2.93-1.72-3.16-3.62-.88-7.17-.52-14.31,.86-21.39,1.08-5.57,2.81-10.93,5.21-16.07,1.71-3.66,4.62-5.63,8.67-5.66,7.17-.05,14.34-.06,21.51,0,3.79,.03,6.68,1.79,8.34,5.21,3.48,7.19,5.55,14.8,6.39,22.74,.52,4.89,.51,9.78,.01,14.67-.28,2.73-2.19,4.49-4.74,4.29-2.67-.2-4.4-2.16-4.16-4.96,.51-5.9,.4-11.78-.69-17.61-.48-2.54-.99-5.07-1.93-7.49,0-.34-.14-.55-.49-.5-.28,.03-.37,.27-.38,.53-.01,.28,0,.56,0,.84,0,23.23,0,46.45,0,69.68,0,.32,.03,.64,.05,.95-.8,3.89-3.66,6.01-7.13,5.29-2.8-.58-4.68-3.07-4.68-6.24,0-14.18,0-28.35,0-42.53,0-.24,0-.48,0-.72-.01-1.33-.47-1.95-1.42-1.93-.97,.03-1.4,.73-1.29,2.09-.02,.47-.07,.95-.07,1.42,0,14.36,0,28.72,0,43.08Z"/><path class="cls-3" d="M73.58,419.47c-.04,6.06-4.84,10.83-10.89,10.82-5.89,0-10.75-4.93-10.73-10.88,.02-5.86,4.91-10.77,10.72-10.77,6.04,0,10.93,4.86,10.89,10.83Z"/><path class="cls-3" d="M129.51,520.95c-1.01,4.49-5.24,5.67-7.88,4.57-2.47-1.02-3.67-2.93-3.89-5.53-.03-.36,0-.72,0-1.08,0-23.03,0-46.05-.01-69.08,0-.47,.33-1.22-.34-1.35-.69-.13-.65,.7-.77,1.14-2.33,7.88-3.2,15.9-2.32,24.09,.39,3.59-2.26,5.99-5.67,5.16-1.73-.43-2.93-1.72-3.16-3.62-.88-7.17-.52-14.31,.86-21.39,1.08-5.57,2.81-10.93,5.21-16.07,1.71-3.66,4.62-5.63,8.67-5.66,7.17-.05,14.34-.06,21.51,0,3.79,.03,6.68,1.79,8.34,5.21,3.48,7.19,5.55,14.8,6.39,22.74,.52,4.89,.51,9.78,.01,14.67-.28,2.73-2.19,4.49-4.74,4.29-2.67-.2-4.4-2.16-4.16-4.96,.51-5.9,.4-11.78-.69-17.61-.48-2.54-.99-5.07-1.93-7.49,0-.34-.14-.55-.49-.5-.28,.03-.37,.27-.38,.53-.01,.28,0,.56,0,.84,0,23.23,0,46.45,0,69.68,0,.32,.03,.64,.05,.95-.8,3.89-3.66,6.01-7.13,5.29-2.8-.58-4.68-3.07-4.68-6.24,0-14.18,0-28.35,0-42.53,0-.24,0-.48,0-.72-.01-1.33-.47-1.95-1.42-1.93-.97,.03-1.4,.73-1.29,2.09-.02,.47-.07,.95-.07,1.42,0,14.36,0,28.72,0,43.08Z"/><path class="cls-3" d="M141.7,419.47c-.04,6.06-4.84,10.83-10.89,10.82-5.89,0-10.75-4.93-10.73-10.88,.02-5.86,4.91-10.77,10.72-10.77,6.04,0,10.93,4.86,10.89,10.83Z"/><path class="cls-3" d="M197.63,521.15c-1.01,4.49-5.24,5.67-7.88,4.57-2.47-1.02-3.67-2.93-3.89-5.53-.03-.36,0-.72,0-1.08,0-23.03,0-46.05-.01-69.08,0-.47,.33-1.22-.34-1.35-.69-.13-.65,.7-.77,1.14-2.33,7.88-3.2,15.9-2.32,24.09,.39,3.59-2.26,5.99-5.67,5.16-1.73-.43-2.93-1.72-3.16-3.62-.88-7.17-.52-14.31,.86-21.39,1.08-5.57,2.81-10.93,5.21-16.07,1.71-3.66,4.62-5.63,8.67-5.66,7.17-.05,14.34-.06,21.51,0,3.79,.03,6.68,1.79,8.34,5.21,3.48,7.19,5.55,14.8,6.39,22.74,.52,4.89,.51,9.78,.01,14.67-.28,2.73-2.19,4.49-4.74,4.29-2.67-.2-4.4-2.16-4.16-4.96,.51-5.9,.4-11.78-.69-17.61-.48-2.54-.99-5.07-1.93-7.49,0-.34-.14-.55-.49-.5-.28,.03-.37,.27-.38,.53-.01,.28,0,.56,0,.84,0,23.23,0,46.45,0,69.68,0,.32,.03,.64,.05,.95-.8,3.89-3.66,6.01-7.13,5.29-2.8-.58-4.68-3.07-4.68-6.24,0-14.18,0-28.35,0-42.53,0-.24,0-.48,0-.72-.01-1.33-.47-1.95-1.42-1.93-.97,.03-1.4,.73-1.29,2.09-.02,.47-.07,.95-.07,1.42,0,14.36,0,28.72,0,43.08Z"/><path class="cls-3" d="M209.83,419.67c-.04,6.06-4.84,10.83-10.89,10.82-5.89,0-10.75-4.93-10.73-10.88,.02-5.86,4.91-10.77,10.72-10.77,6.04,0,10.93,4.86,10.89,10.83Z"/><path class="cls-3" d="M265.75,521.15c-1.01,4.49-5.24,5.67-7.88,4.57-2.47-1.02-3.67-2.93-3.89-5.53-.03-.36,0-.72,0-1.08,0-23.03,0-46.05-.01-69.08,0-.47,.33-1.22-.34-1.35-.69-.13-.65,.7-.77,1.14-2.33,7.88-3.2,15.9-2.32,24.09,.39,3.59-2.26,5.99-5.67,5.16-1.73-.43-2.93-1.72-3.16-3.62-.88-7.17-.52-14.31,.86-21.39,1.08-5.57,2.81-10.93,5.21-16.07,1.71-3.66,4.62-5.63,8.67-5.66,7.17-.05,14.34-.06,21.51,0,3.79,.03,6.68,1.79,8.34,5.21,3.48,7.19,5.55,14.8,6.39,22.74,.52,4.89,.51,9.78,.01,14.67-.28,2.73-2.19,4.49-4.74,4.29-2.67-.2-4.4-2.16-4.16-4.96,.51-5.9,.4-11.78-.69-17.61-.48-2.54-.99-5.07-1.93-7.49,0-.34-.14-.55-.49-.5-.28,.03-.37,.27-.38,.53-.01,.28,0,.56,0,.84,0,23.23,0,46.45,0,69.68,0,.32,.03,.64,.05,.95-.8,3.89-3.66,6.01-7.13,5.29-2.8-.58-4.68-3.07-4.68-6.24,0-14.18,0-28.35,0-42.53,0-.24,0-.48,0-.72-.01-1.33-.47-1.95-1.42-1.93-.97,.03-1.4,.73-1.29,2.09-.02,.47-.07,.95-.07,1.42,0,14.36,0,28.72,0,43.08Z"/><path class="cls-3" d="M277.95,419.67c-.04,6.06-4.84,10.83-10.89,10.82-5.89,0-10.75-4.93-10.73-10.88,.02-5.86,4.91-10.77,10.72-10.77,6.04,0,10.93,4.86,10.89,10.83Z"/><path class="cls-3" d="M333.88,521.33c-1.01,4.49-5.24,5.67-7.88,4.57-2.47-1.02-3.67-2.93-3.89-5.53-.03-.36,0-.72,0-1.08,0-23.03,0-46.05-.01-69.08,0-.47,.33-1.22-.34-1.35-.69-.13-.65,.7-.77,1.14-2.33,7.88-3.2,15.9-2.32,24.09,.39,3.59-2.26,5.99-5.67,5.16-1.73-.43-2.93-1.72-3.16-3.62-.88-7.17-.52-14.31,.86-21.39,1.08-5.57,2.81-10.93,5.21-16.07,1.71-3.66,4.62-5.63,8.67-5.66,7.17-.05,14.34-.06,21.51,0,3.79,.03,6.68,1.79,8.34,5.21,3.48,7.19,5.55,14.8,6.39,22.74,.52,4.89,.51,9.78,.01,14.67-.28,2.73-2.19,4.49-4.74,4.29-2.67-.2-4.4-2.16-4.16-4.96,.51-5.9,.4-11.78-.69-17.61-.48-2.54-.99-5.07-1.93-7.49,0-.34-.14-.55-.49-.5-.28,.03-.37,.27-.38,.53-.01,.28,0,.56,0,.84,0,23.23,0,46.45,0,69.68,0,.32,.03,.64,.05,.95-.8,3.89-3.66,6.01-7.13,5.29-2.8-.58-4.68-3.07-4.68-6.24,0-14.18,0-28.35,0-42.53,0-.24,0-.48,0-.72-.01-1.33-.47-1.95-1.42-1.93-.97,.03-1.4,.73-1.29,2.09-.02,.47-.07,.95-.07,1.42,0,14.36,0,28.72,0,43.08Z"/><path class="cls-3" d="M346.07,419.85c-.04,6.06-4.84,10.83-10.89,10.82-5.89,0-10.75-4.93-10.73-10.88,.02-5.86,4.91-10.77,10.72-10.77,6.04,0,10.93,4.86,10.89,10.83Z"/><path class="cls-3" d="M402,521.33c-1.01,4.49-5.24,5.67-7.88,4.57-2.47-1.02-3.67-2.93-3.89-5.53-.03-.36,0-.72,0-1.08,0-23.03,0-46.05-.01-69.08,0-.47,.33-1.22-.34-1.35-.69-.13-.65,.7-.77,1.14-2.33,7.88-3.2,15.9-2.32,24.09,.39,3.59-2.26,5.99-5.67,5.16-1.73-.43-2.93-1.72-3.16-3.62-.88-7.17-.52-14.31,.86-21.39,1.08-5.57,2.81-10.93,5.21-16.07,1.71-3.66,4.62-5.63,8.67-5.66,7.17-.05,14.34-.06,21.51,0,3.79,.03,6.68,1.79,8.34,5.21,3.48,7.19,5.55,14.8,6.39,22.74,.52,4.89,.51,9.78,.01,14.67-.28,2.73-2.19,4.49-4.74,4.29-2.67-.2-4.4-2.16-4.16-4.96,.51-5.9,.4-11.78-.69-17.61-.48-2.54-.99-5.07-1.93-7.49,0-.34-.14-.55-.49-.5-.28,.03-.37,.27-.38,.53-.01,.28,0,.56,0,.84,0,23.23,0,46.45,0,69.68,0,.32,.03,.64,.05,.95-.8,3.89-3.66,6.01-7.13,5.29-2.8-.58-4.68-3.07-4.68-6.24,0-14.18,0-28.35,0-42.53,0-.24,0-.48,0-.72-.01-1.33-.47-1.95-1.42-1.93-.97,.03-1.4,.73-1.29,2.09-.02,.47-.07,.95-.07,1.42,0,14.36,0,28.72,0,43.08Z"/><path class="cls-3" d="M414.2,419.85c-.04,6.06-4.84,10.83-10.89,10.82-5.89,0-10.75-4.93-10.73-10.88,.02-5.86,4.91-10.77,10.72-10.77,6.04,0,10.93,4.86,10.89,10.83Z"/><path class="cls-3" d="M470.12,521.54c-1.01,4.49-5.24,5.67-7.88,4.57-2.47-1.02-3.67-2.93-3.89-5.53-.03-.36,0-.72,0-1.08,0-23.03,0-46.05-.01-69.08,0-.47,.33-1.22-.34-1.35-.69-.13-.65,.7-.77,1.14-2.33,7.88-3.2,15.9-2.32,24.09,.39,3.59-2.26,5.99-5.67,5.16-1.73-.43-2.93-1.72-3.16-3.62-.88-7.17-.52-14.31,.86-21.39,1.08-5.57,2.81-10.93,5.21-16.07,1.71-3.66,4.62-5.63,8.67-5.66,7.17-.05,14.34-.06,21.51,0,3.79,.03,6.68,1.79,8.34,5.21,3.48,7.19,5.55,14.8,6.39,22.74,.52,4.89,.51,9.78,.01,14.67-.28,2.73-2.19,4.49-4.74,4.29-2.67-.2-4.4-2.16-4.16-4.96,.51-5.9,.4-11.78-.69-17.61-.48-2.54-.99-5.07-1.93-7.49,0-.34-.14-.55-.49-.5-.28,.03-.37,.27-.38,.53-.01,.28,0,.56,0,.84,0,23.23,0,46.45,0,69.68,0,.32,.03,.64,.05,.95-.8,3.89-3.66,6.01-7.13,5.29-2.8-.58-4.68-3.07-4.68-6.24,0-14.18,0-28.35,0-42.53,0-.24,0-.48,0-.72-.01-1.33-.47-1.95-1.42-1.93-.97,.03-1.4,.73-1.29,2.09-.02,.47-.07,.95-.07,1.42,0,14.36,0,28.72,0,43.08Z"/><path class="cls-3" d="M482.32,420.06c-.04,6.06-4.84,10.83-10.89,10.82-5.89,0-10.75-4.93-10.73-10.88,.02-5.86,4.91-10.77,10.72-10.77,6.04,0,10.93,4.86,10.89,10.83Z"/></g><text class="cls-5" transform="translate(134.81 76.2)"><tspan x="0" y="0">TRIPULACIÓN</tspan></text><g><circle cx="135.68" cy="613.75" r="17.13"/><text class="cls-4" transform="translate(163.75 627.16)"><tspan x="0" y="0">Pilotos</tspan></text><circle class="cls-2" cx="303.26" cy="613.75" r="17.13"/><text class="cls-4" transform="translate(331.32 627.16)"><tspan x="0" y="0">Astronautas</tspan></text><circle class="cls-3" cx="209.7" cy="668.37" r="17.13"/><text class="cls-4" transform="translate(237.76 681.77)"><tspan x="0" y="0">Pasajeros</tspan></text></g></svg>