<?xml version="1.0" encoding="utf-8"?>
<!-- Generator: Adobe Illustrator 26.2.1, SVG Export Plug-In . SVG Version: 6.00 Build 0)  -->
<svg version="1.1" id="Capa_1" xmlns="http://www.w3.org/2000/svg" xmlns:xlink="http://www.w3.org/1999/xlink" x="0px" y="0px"
	 viewBox="0 0 1920 1080" style="enable-background:new 0 0 1920 1080;" xml:space="preserve">
<style type="text/css">
	.st0{fill:#023B4F;}
	.st1{fill:#FFFFFF;}
	.st2{fill:#808080;}
	.st3{fill:#B3B3B3;}
</style>
<path class="st0" d="M65.1,482.8l124.81,188.54c0,0,375.76,165.97,422.23,184.56c46.47,18.59,148.71,54.44,225.72,59.75
	c0,0,39.17,3.32,51.12,11.29s31.18,9.58,46.79-21.77c0,0-249.28-91.76-419.9-214.58C355.49,575.14,174.64,491.43,65.1,482.8z"/>
<g>
	<circle cx="247.41" cy="619.86" r="69.66"/>
	<g>
		<path class="st1" d="M195.97,606.87c0.23-0.08,0.31-0.31,0.46-0.48c0.67-0.74,1.37-1.47,1.99-2.25c0.48-0.6,1.05-1.1,1.57-1.65
			c0.08-0.09,0.14-0.19,0.22-0.28c0.24-0.29,0.4-0.64,0.79-0.81c0.21-0.1,0.39-0.33,0.49-0.57c0.06-0.16,0.14-0.31,0.29-0.4
			c0.55-0.34,0.91-0.86,1.31-1.34c0.41-0.5,0.86-0.96,1.31-1.41c0.39-0.38,0.65-0.86,1.02-1.26c1.48-1.58,2.9-3.22,4.4-4.79
			c0.72-0.76,1.59-1.13,2.6-0.91c1.08,0.23,1.99,0.99,2.02,2.26c0.02,0.68-0.11,1.34-0.28,2c-0.22,0.84-0.38,1.69-0.58,2.54
			c-0.17,0.7-0.36,1.39-0.54,2.09c-0.06,0.23-0.12,0.45-0.14,0.69c-0.02,0.21-0.08,0.46-0.15,0.66c-0.09,0.25-0.07,0.51-0.14,0.76
			c-0.04,0.12,0.02,0.27-0.13,0.36c-0.03,0.02-0.06,0.1-0.05,0.12c0.21,0.3-0.12,0.52-0.11,0.79c0.01,0.21-0.24,0.21-0.27,0.43
			c-0.02,0.21-0.08,0.44-0.14,0.65c-0.16,0.6-0.34,1.19-0.49,1.79c-0.1,0.39-0.18,0.77-0.32,1.15c-0.04,0.1-0.08,0.2,0.02,0.29
			c0.05,0.05,0.07,0.1,0.04,0.16c-0.23,0.38-0.16,0.79-0.11,1.2c0.03,0.24-0.04,0.48-0.14,0.7c-0.09,0.21-0.18,0.41-0.05,0.64
			c0.03,0.05,0.04,0.13-0.02,0.17c-0.36,0.23-0.31,0.61-0.35,0.94c-0.03,0.29-0.06,0.56-0.2,0.82c-0.28,0.51-0.25,1.07-0.25,1.62
			c0,0.25-0.07,0.41-0.26,0.57c-0.29,0.24-0.42,0.6-0.6,0.93c-0.04,0.07-0.11,0.18-0.01,0.24c0.13,0.08,0.06,0.14,0,0.2
			c-0.12,0.13-0.12,0.31-0.05,0.42c0.22,0.39,0,0.74-0.16,1.01c-0.23,0.39-0.4,0.78-0.47,1.23c-0.03,0.19-0.15,0.36-0.22,0.54
			c-0.06,0.18-0.2,0.33-0.04,0.58c0.08,0.13-0.09,0.41-0.15,0.62c-0.02,0.06-0.05,0.11-0.09,0.16c-0.11,0.18-0.2,0.34,0.04,0.49
			c0.04,0.03,0.03,0.14,0.05,0.25c0.21-0.18,0.39-0.34,0.52-0.55c0.78-1.3,1.57-2.59,2.35-3.89c0.38-0.63,0.86-1.2,1.22-1.84
			c0.8-1.41,1.79-2.7,2.63-4.09c0.52-0.86,1.12-1.67,1.68-2.5c0.77-1.15,1.58-2.26,2.37-3.39c0.76-1.08,1.58-2.11,2.38-3.16
			c0.68-0.89,1.39-1.77,2.07-2.66c0.21-0.28,0.48-0.49,0.68-0.78c0.35-0.49,0.69-0.98,1.04-1.46c0.83-1.13,1.76-2.17,2.64-3.25
			c0.12-0.15,0.27-0.28,0.35-0.47c0.02-0.05,0.05-0.13,0.1-0.15c0.37-0.16,0.47-0.52,0.62-0.84c0.02-0.04,0.04-0.08,0.08-0.11
			c0.65-0.53,1.04-1.27,1.58-1.89c0.21-0.24,0.42-0.48,0.65-0.68c0.5-0.43,0.96-0.9,1.31-1.47c0.13-0.21,0.3-0.37,0.5-0.51
			c0.17-0.12,0.32-0.27,0.46-0.43c1.07-1.24,2.23-2.39,3.35-3.59c1.16-1.24,2.34-2.46,3.51-3.68c1.28-1.33,2.56-2.66,3.87-3.96
			c0.79-0.78,1.54-1.6,2.4-2.3c0.9-0.74,1.89-1.31,3.03-1.6c1.73-0.43,3.04,0.22,4.11,1.54c0.52,0.65,0.82,1.39,0.76,2.24
			c-0.03,0.48-0.11,0.95-0.27,1.4c-0.05,0.15-0.11,0.29-0.09,0.47c0.03,0.19-0.14,0.35-0.27,0.49c-0.43,0.45-0.97,0.75-1.51,1.02
			c-0.1,0.05-0.15,0.11-0.22,0.19c-0.2,0.23-0.38,0.46-0.76,0.42c-0.15-0.02-0.43-0.04-0.5,0.23c-0.23-0.03-0.43,0.08-0.64,0.13
			c-0.1,0.02-0.2,0.04-0.29,0.08c-1.25,0.57-2.43,1.27-3.57,2.05c-1.64,1.13-3.03,2.56-4.49,3.9c-0.36,0.33-0.73,0.67-1.1,1
			c-0.1,0.09-0.22,0.17-0.27,0.3c-0.28,0.72-0.98,1.04-1.5,1.53c-0.44,0.42-0.91,0.82-1.27,1.32c-0.18,0.25-0.39,0.43-0.62,0.61
			c-0.18,0.14-0.34,0.3-0.46,0.49c-0.31,0.48-0.75,0.83-1.08,1.29c-0.19,0.27-0.47,0.46-0.68,0.7c-0.23,0.26-0.39,0.56-0.61,0.81
			c-0.37,0.43-0.68,0.91-1.12,1.28c-0.11,0.1-0.19,0.2-0.17,0.34c0.05,0.23-0.08,0.29-0.24,0.41c-0.33,0.24-0.66,0.49-0.91,0.84
			c-0.27,0.38-0.52,0.81-0.94,1.07c-0.34,0.21-0.53,0.55-0.73,0.88c-0.36,0.58-0.7,1.17-0.99,1.8c-0.16,0.35-0.44,0.63-0.86,0.7
			c-0.12,0.02-0.24,0.07-0.31,0.17c-0.22,0.3-0.53,0.53-0.73,0.85c-0.04,0.06-0.08,0.15-0.14,0.17c-0.35,0.12-0.49,0.45-0.73,0.69
			c-0.05,0.05-0.1,0.12-0.16,0.16c-0.67,0.42-1.04,1.1-1.5,1.7c-0.73,0.94-1.39,1.95-2.13,2.89c-0.44,0.56-0.85,1.16-1.29,1.72
			c-0.15,0.2-0.25,0.43-0.36,0.64c-0.1,0.19-0.33,0.33-0.31,0.59c0,0.05-0.09,0.12-0.16,0.15c-0.53,0.28-0.64,0.46-0.8,1.06
			c-0.11,0.43-0.28,0.86-0.76,1.06c-0.15,0.06-0.28,0.14-0.3,0.31c-0.04,0.43-0.41,0.65-0.63,0.95c-0.11,0.15-0.24,0.3-0.31,0.48
			c-0.13,0.33-0.38,0.6-0.46,0.96c-0.02,0.07-0.06,0.14-0.15,0.15c-0.26,0.05-0.31,0.25-0.43,0.45c-0.18,0.32-0.37,0.64-0.6,0.93
			c-0.27,0.34-0.46,0.73-0.68,1.1c-0.07,0.11-0.09,0.25-0.18,0.36c-0.1,0.12-0.19,0.27,0,0.42c0.06,0.04-0.08,0.55-0.17,0.7
			c-0.16,0.26-0.33,0.52-0.5,0.77c-0.05,0.07-0.11,0.16-0.19,0.18c-0.41,0.14-0.64,0.45-0.84,0.81c-0.26,0.45-0.56,0.88-0.8,1.34
			c-0.08,0.15-0.12,0.27-0.02,0.45c0.15,0.27,0.01,0.47-0.3,0.46c-0.17-0.01-0.21,0.05-0.25,0.18c-0.05,0.17-0.14,0.31-0.27,0.4
			c-0.48,0.34-0.7,0.86-0.96,1.34c-0.29,0.53-0.62,1.03-0.92,1.55c-0.42,0.72-0.85,1.44-1.27,2.17c-0.14,0.24-0.29,0.49-0.44,0.73
			c-0.62,1.01-1.19,2.05-1.8,3.06c-0.59,0.99-1.17,1.99-1.79,2.97c-0.52,0.82-0.99,1.67-1.67,2.38c-0.56,0.59-1.2,0.96-2.03,0.84
			c-0.67-0.1-1.26-0.32-1.65-0.96c-0.23-0.38-0.34-0.78-0.29-1.2c0.1-0.86,0.3-1.71,0.45-2.57c0.18-1.02,0.45-2.02,0.68-3.02
			c0.11-0.49,0.27-0.98,0.36-1.48c0.03-0.18,0.1-0.34,0.02-0.52c-0.03-0.08-0.01-0.14,0.05-0.2c0.12-0.12,0.17-0.29,0.2-0.45
			c0.1-0.62,0.25-1.22,0.4-1.83c0.05-0.19-0.08-0.27-0.22-0.34c0.11-0.14,0.33-0.13,0.36-0.33c0.02-0.16,0.02-0.3-0.07-0.43
			c-0.09-0.13-0.02-0.23,0.06-0.32c0.38-0.44,0.45-0.99,0.57-1.54c0.16-0.73,0.37-1.45,0.56-2.17c0.19-0.73,0.36-1.45,0.57-2.17
			c0.31-1.08,0.52-2.19,0.82-3.27c0.46-1.63,0.84-3.28,1.29-4.92c0.12-0.43,0.04-0.9,0.27-1.3c0.25-0.42,0.3-0.91,0.41-1.37
			c0.24-1.02,0.53-2.03,0.76-3.05c0.08-0.35,0.16-0.64,0.01-0.98c-0.11-0.26,0.22-0.45,0.14-0.71c0.25-0.23,0.21-0.64,0.51-0.82
			c-0.05-0.09-0.1-0.12-0.17-0.1c-0.24,0.07-0.23-0.05-0.14-0.2c0.15-0.27,0.15-0.46-0.03-0.66c-0.24-0.26-0.25-0.24-0.53,0
			c-0.24,0.22-0.42,0.52-0.82,0.55c-0.13,0.01-0.2,0.3-0.44,0.24c-0.03-0.01-0.02,0.11-0.03,0.16c-0.05,0.26-0.22,0.44-0.41,0.63
			c-0.24,0.23-0.52,0.41-0.74,0.66c-0.22,0.25-0.47,0.5-0.7,0.76c-0.18,0.22-0.46,0.3-0.57,0.63c-0.09,0.26-0.36,0.48-0.6,0.64
			c-0.19,0.13-0.06,0.42-0.36,0.48c-0.26,0.05-0.35,0.35-0.53,0.53c-0.17,0.16-0.37,0.28-0.55,0.43c-0.23,0.19-0.43,0.42-0.62,0.64
			c-0.32,0.37-0.67,0.67-1.14,0.79c-0.47,0.12-0.93,0.09-1.41-0.03c-1.01-0.25-1.4-1.03-1.48-1.81c-0.02-0.24,0.13-0.47,0.02-0.7
			C195.92,606.98,195.95,606.93,195.97,606.87z"/>
		<path class="st1" d="M293.73,615.76c0.07,0.05,0.14-0.03,0.21-0.01c0,0.03,0.01,0.06,0,0.08c-0.02,0.04-0.04,0.1-0.07,0.11
			c-0.19,0.08,0.01,0.35-0.19,0.42c-0.19,0.07-0.18,0.27-0.29,0.4c-0.15,0.18-0.07,0.4-0.13,0.61c-0.11,0.1-0.28-0.13-0.39,0.07
			c-0.07,0.13-0.07,0.25,0.01,0.38c0.05,0.08-0.03,0.11-0.08,0.12c-0.21,0.01-0.26,0.11-0.2,0.3c0.01,0.04,0,0.11,0,0.11
			c-0.45,0.04-0.36,0.48-0.52,0.73c-0.17,0.28-0.28,0.6-0.4,0.9c-0.07,0.17-0.21,0.34-0.08,0.55c0.02,0.03,0.01,0.11-0.03,0.11
			c-0.32-0.01-0.16,0.37-0.38,0.45c-0.04,0.01-0.09,0.13-0.08,0.14c0.23,0.24-0.08,0.41-0.07,0.6c0.01,0.24-0.26,0.24-0.28,0.43
			c-0.02,0.18-0.07,0.34-0.29,0.39c-0.06,0.01-0.22,0.2,0.04,0.27c0.08,0.02,0.05,0.1-0.01,0.13c-0.19,0.09-0.44,0.16-0.22,0.45
			c0.03,0.05-0.02,0.07-0.06,0.09c-0.26,0.19-0.33,0.33-0.28,0.63c0.01,0.09-0.05,0.13-0.06,0.2c-0.02,0.08-0.07,0.16,0.01,0.25
			c0.17,0.17,0.11,0.29-0.1,0.36c-0.09,0.03-0.17,0.16-0.1,0.2c0.21,0.13,0.05,0.28,0.07,0.42c0.05,0.31,0.17,0.61,0.35,0.86
			c0.14,0.2,0.38,0.27,0.63,0.3c0.69,0.07,1.38,0.04,2.07,0.01c0.88-0.04,1.76-0.1,2.65-0.15c0.39-0.02,0.77-0.09,1.16-0.1
			c0.82-0.03,1.53,0.28,2.2,0.69c0.31,0.19,0.66,0.31,0.94,0.57c0.2,0.18,0.28,0.39,0.33,0.61c0.07,0.3,0.08,0.62,0.1,0.94
			c0.01,0.22,0.02,0.45-0.21,0.58c-0.12,0.07-0.05,0.16-0.05,0.24c0.02,0.23-0.09,0.42-0.25,0.55c-0.37,0.29-0.76,0.56-1.14,0.85
			c-0.46,0.35-0.97,0.57-1.55,0.65c-0.3,0.04-0.58,0.15-0.88,0.18c-1.01,0.12-2.01-0.01-3-0.12c-1.21-0.14-2.42-0.22-3.63-0.3
			c-1.33-0.1-2.66,0.01-4-0.05c-0.52-0.02-1.05,0.06-1.57,0.1c-1.1,0.08-2.21,0.15-3.31,0.23c-0.85,0.06-1.7,0.15-2.55,0.21
			c-0.91,0.07-1.82,0.14-2.73,0.19c-0.36,0.02-0.71,0.08-1.07,0.11c-1.3,0.12-2.6,0.21-3.9,0.34c-1.34,0.14-2.68,0.32-4.02,0.45
			c-1.21,0.12-2.41,0.3-3.61,0.45c-1.07,0.14-2.13,0.3-3.2,0.46c-1.39,0.2-2.8,0.34-4.17,0.68c-0.31,0.08-0.64,0.11-0.97,0.17
			c-0.17,0.03-0.32,0.05-0.44,0.19c-0.08,0.09-0.19,0.12-0.32,0.12c-0.52-0.03-0.91,0.19-1.09,0.69c-0.1,0.3-0.31,0.53-0.43,0.82
			c-0.09,0.22-0.06,0.54-0.41,0.65c-0.13,0.04,0.13,0.24-0.03,0.39c-0.1,0.09-0.25,0.18-0.28,0.34c0,0.02,0.02,0.06,0.03,0.08
			c0.09,0.2-0.03,0.34-0.13,0.49c-0.19,0.25-0.47,0.47-0.36,0.85c0.01,0.03-0.02,0.14-0.17,0.12c-0.18-0.03-0.16,0.21-0.14,0.3
			c0.05,0.21-0.04,0.34-0.18,0.47c-0.04,0.04-0.11,0.08-0.12,0.13c-0.11,0.62-0.51,1.11-0.72,1.68c-0.11,0.3-0.33,0.57-0.25,0.93
			c0.01,0.05-0.08,0.22-0.1,0.22c-0.42,0.04-0.24,0.39-0.32,0.6c-0.16,0.43-0.33,0.86-0.53,1.28c-0.2,0.41-0.31,0.87-0.63,1.23
			c-0.06,0.07,0.01,0.15-0.01,0.21c-0.14,0.44-0.34,0.84-0.55,1.25c-0.11,0.21-0.19,0.46-0.19,0.69c0,0.13-0.02,0.15-0.12,0.14
			c-0.25-0.03-0.35,0.14-0.4,0.33c-0.04,0.15-0.25,0.32,0.01,0.47c0.09,0.05,0.07,0.16,0.01,0.24c-0.06,0.1-0.13,0.01-0.19-0.01
			c-0.16-0.04-0.22,0.09-0.15,0.17c0.17,0.19-0.05,0.31-0.04,0.46c0.01,0.22-0.13,0.32-0.28,0.45c-0.13,0.11-0.17,0.33-0.38,0.38
			c-0.07,0.02-0.08,0.1-0.05,0.15c0.07,0.14,0,0.29,0,0.43c0,0.22,0.13,0.57-0.31,0.63c-0.16,0.03-0.23,0.22-0.22,0.4
			c0.02,0.17,0.04,0.34,0.05,0.52c-0.34,0-0.34,0-0.44,0.33c-0.03,0.1-0.04,0.19,0.07,0.22c0.22,0.05,0.03,0.2,0.08,0.29
			c0.12,0.21-0.05,0.14-0.15,0.14c-0.03,0-0.08,0.02-0.08,0.02c0.02,0.28-0.18,0.46-0.31,0.68c-0.05,0.08,0.11,0.34,0.26,0.51
			c-0.06,0.12-0.22,0.16-0.29,0.31c-0.05,0.1-0.14,0.14,0.01,0.21c0.01,0.01,0.03,0.03,0.03,0.03c-0.18,0.17-0.04,0.42-0.12,0.56
			c-0.08,0.16,0.04,0.3-0.07,0.44c-0.04,0.05-0.07,0.23-0.1,0.23c-0.4-0.02-0.24,0.43-0.47,0.55c-0.14,0.07-0.07,0.22-0.09,0.33
			c-0.01,0.11-0.01,0.24,0.18,0.19c0.02-0.01,0.07,0.19,0.03,0.31c-0.13,0.35-0.21,0.71-0.08,1.08c0.04,0.13-0.03,0.2-0.12,0.26
			c-0.19,0.11-0.36,0.29-0.61,0.17c-0.06,0.16,0.06,0.12,0.1,0.13c0.06,0.02,0.07,0.05,0.08,0.1c0.02,0.08-0.05,0.06-0.08,0.05
			c-0.36-0.03-0.3,0.28-0.39,0.47c-0.08,0.18-0.05,0.33,0.15,0.4c0.11,0.04,0.17,0.12,0.21,0.22c0.04,0.1,0.15,0.21-0.06,0.26
			c-0.09,0.02-0.03,0.1-0.03,0.15c0,0.09,0.16,0.22,0.1,0.22c-0.25,0-0.2,0.41-0.47,0.33c-0.04-0.01-0.08-0.02-0.12-0.03
			c0.34,0.22-0.36,0.36-0.04,0.64c0.11,0.1,0.05,0.41,0.32,0.57c-0.35,0.11-0.47,0.44-0.76,0.56c-0.07,0.03-0.1,0.14-0.03,0.23
			c0.06,0.07,0.12,0.14,0.2,0.24c-0.38-0.04-0.62,0.14-0.82,0.4c-0.12,0.16-0.3,0.25-0.48,0.32c-0.57,0.2-1.17,0.35-1.77,0.24
			c-0.49-0.09-0.98-0.28-1.36-0.64c-0.07-0.06-0.13-0.12-0.2-0.18c-0.84-0.62-1.07-1.46-0.97-2.46c0.13-1.21,0.53-2.32,1.07-3.4
			c0.33-0.66,0.6-1.34,0.91-2.01c0.32-0.68,0.65-1.35,0.97-2.03c0.13-0.28,0.24-0.58,0.36-0.86c0.19-0.46,0.43-0.89,0.69-1.31
			c0.15-0.23,0.22-0.51,0.32-0.77c0.15-0.39,0.24-0.81,0.51-1.15c0.08-0.1,0.13-0.24,0.16-0.37c0.09-0.42,0.31-0.78,0.51-1.15
			c0.24-0.44,0.53-0.87,0.56-1.4c0-0.03,0.01-0.07,0.03-0.08c0.4-0.2,0.4-0.63,0.55-0.97c0.34-0.75,0.67-1.51,0.98-2.28
			c0.61-1.51,1.3-2.99,1.92-4.51c0.44-1.08,0.89-2.17,1.43-3.2c0.03-0.06,0.04-0.14,0.07-0.24c-0.25-0.05-0.48-0.03-0.71,0
			c-1.1,0.17-2.17,0.42-3.24,0.74c-0.89,0.27-1.8,0.46-2.69,0.69c-1.23,0.32-2.47,0.62-3.69,0.98c-1.16,0.34-2.33,0.68-3.5,1
			c-0.62,0.17-1.25,0.32-1.87,0.49c-1.18,0.33-2.36,0.69-3.55,1.02c-0.84,0.23-1.68,0.44-2.52,0.66c-0.04,0.01-0.1,0.01-0.13,0.03
			c-0.48,0.3-1.06,0.37-1.56,0.67c-0.42,0.25-0.91,0.4-1.4,0.47c-0.85,0.12-1.59,0.52-2.36,0.82c-0.32,0.13-0.61,0.32-0.96,0.35
			c-0.07,0.01-0.16,0.02-0.21,0.07c-0.51,0.48-1.21,0.58-1.81,0.84c-1,0.44-2,0.87-3.06,1.17c-0.46,0.13-0.8,0.48-1.24,0.62
			c-0.57,0.19-1.08,0.5-1.63,0.71c-0.68,0.26-1.39,0.49-2.05,0.79c-0.5,0.22-1,0.36-1.53,0.45c-0.18,0.03-0.32-0.07-0.47-0.12
			c-0.96-0.26-1.71-0.78-2.13-1.71c-0.23-0.49-0.27-1.02-0.12-1.53c0.08-0.28,0.11-0.57,0.29-0.84c0.22-0.31,0.49-0.52,0.8-0.7
			c1.41-0.82,2.9-1.45,4.45-1.95c0.9-0.29,1.79-0.62,2.67-0.95c1.8-0.66,3.62-1.27,5.47-1.81c1.01-0.29,2.02-0.56,3.04-0.82
			c0.91-0.24,1.81-0.52,2.71-0.82c1.48-0.49,3-0.82,4.48-1.29c0.93-0.3,1.88-0.51,2.81-0.81c0.48-0.16,0.99-0.26,1.49-0.35
			c0.29-0.05,0.54-0.17,0.81-0.25c0.69-0.2,1.41-0.27,2.11-0.44c1.15-0.28,2.3-0.55,3.45-0.81c0.83-0.19,1.67-0.34,2.5-0.54
			c1.65-0.4,3.28-0.84,4.93-1.23c0.77-0.19,1.55-0.32,2.33-0.47c0.11-0.02,0.2-0.03,0.24-0.15c0.07-0.18,0.21-0.33,0.29-0.5
			c0.25-0.51,0.45-1.04,0.67-1.56c0.05-0.11,0.12-0.23,0.01-0.33c-0.1-0.09-0.22-0.04-0.34-0.01c-0.55,0.11-1.1,0.21-1.65,0.31
			c-0.09,0.02-0.18,0.03-0.26,0c-0.36-0.1-0.73-0.11-1.09-0.07c-0.25,0.02-0.45,0.04-0.64-0.14c-0.05-0.05-0.17-0.03-0.26-0.04
			c-1-0.14-1.93-0.45-2.71-1.1c-0.58-0.49-1.04-1.08-1.2-1.84c-0.11-0.5-0.07-1.01,0.01-1.52c0.16-1.01,0.61-1.91,1.02-2.83
			c0.22-0.49,0.44-0.99,0.64-1.49c0.1-0.25,0.09-0.53,0.22-0.77c0.12-0.22,0.23-0.45,0.42-0.63c0.27-0.25,0.37-0.62,0.51-0.94
			c0.28-0.65,0.68-1.23,1.04-1.83c0.57-0.97,1.26-1.86,2-2.71c0.5-0.57,1.13-0.99,1.72-1.44c0.64-0.48,1.33-0.88,2.04-1.23
			c0.51-0.25,1.07-0.39,1.64-0.45c0.1-0.01,0.21-0.01,0.31-0.04c0.83-0.27,1.63-0.06,2.44,0.1c0.32,0.06,0.55,0.31,0.77,0.53
			c0.18,0.18,0.14,0.79-0.04,1.02c-0.09,0.12-0.16,0.25-0.25,0.36c-0.45,0.57-0.95,1.1-1.68,1.33c-0.29,0.09-0.58,0.15-0.78,0.41
			c-0.07,0.1-0.19,0.13-0.31,0.16c-0.17,0.04-0.28,0.15-0.4,0.27c-0.2,0.2-0.45,0.35-0.68,0.52c-0.06,0.04-0.14,0.07-0.18,0.13
			c-0.5,0.69-1.22,1.16-1.71,1.87c-0.24,0.35-0.51,0.68-0.72,1.06c-0.08,0.15-0.17,0.32-0.14,0.51c0.04,0.28-0.07,0.5-0.3,0.66
			c-0.06,0.04-0.12,0.1-0.14,0.17c-0.19,0.56-0.62,1-0.79,1.56c-0.01,0.03-0.01,0.07-0.03,0.08c-0.46,0.36-0.42,0.96-0.7,1.42
			c-0.28,0.47-0.33,1.02-0.29,1.57c0.03,0.4,0.23,0.72,0.61,0.88c0.86,0.37,1.72,0.33,2.59,0.01c0.8-0.29,1.29-0.91,1.73-1.58
			c0.45-0.7,0.88-1.43,1.31-2.15c0.46-0.77,0.93-1.54,1.34-2.34c0.15-0.29,0.43-0.55,0.39-0.92c0-0.04,0.02-0.1,0.05-0.11
			c0.32-0.11,0.35-0.43,0.49-0.66c0.46-0.82,0.88-1.68,1.35-2.49c0.63-1.07,1.09-2.24,1.75-3.29c0.41-0.65,0.98-1.04,1.7-1.13
			c0.92-0.11,1.79,0.06,2.5,0.73c0.4,0.37,0.47,0.86,0.52,1.36c0.01,0.06-0.08,0.18-0.12,0.27c-0.13,0.29-0.28,0.56-0.42,0.84
			c-0.05,0.11-0.12,0.22-0.07,0.34c0.04,0.09,0.01,0.14-0.08,0.17c-0.04,0.01-0.11,0.03-0.11,0.05c-0.02,0.49-0.57,0.77-0.52,1.28
			c-0.32,0.34-0.24,0.92-0.71,1.17c-0.41,0.63-0.76,1.29-1.1,1.96c-0.43,0.86-0.89,1.7-1.35,2.55c-0.33,0.6-0.68,1.2-0.98,1.82
			c-0.4,0.83-0.81,1.65-1.25,2.46c-0.17,0.31-0.34,0.63-0.35,1.01c0,0.15-0.08,0.34-0.18,0.45c-0.33,0.35-0.45,0.8-0.61,1.22
			c-0.01,0.03-0.02,0.06-0.04,0.08c-0.54,0.62-0.71,1.43-1.09,2.13c-0.05,0.09-0.14,0.19-0.06,0.29c0.09,0.11,0.22,0.08,0.33,0.05
			c1.45-0.4,2.96-0.42,4.44-0.69c0.97-0.18,1.96-0.28,2.94-0.45c0.8-0.13,1.61-0.17,2.4-0.32c0.56-0.1,1.12-0.21,1.69-0.17
			c0.17,0.01,0.32-0.06,0.48-0.09c0.32-0.07,0.62-0.1,0.96-0.07c0.33,0.03,0.67-0.12,1.01-0.17c0.34-0.05,0.69-0.05,1.03-0.1
			c0.55-0.09,1.09-0.19,1.64-0.22c1.17-0.06,2.32-0.3,3.49-0.34c0.61-0.02,1.22-0.13,1.83-0.19c0.88-0.08,1.76-0.16,2.64-0.24
			c0.07-0.01,0.15,0,0.22-0.01c1.19-0.2,2.39-0.2,3.58-0.41c0.22-0.04,0.45-0.03,0.67-0.07c0.25-0.04,0.29-0.14,0.15-0.32
			c-0.55-0.69-0.6-1.42-0.3-2.23c0.18-0.48,0.42-0.93,0.6-1.4c0.23-0.63,0.62-1.17,0.93-1.76c0.04-0.08,0.09-0.17,0.09-0.25
			c0.03-0.49,0.27-0.87,0.57-1.23c0.03-0.03,0.07-0.07,0.07-0.11c0.03-0.56,0.41-0.94,0.66-1.4c0.34-0.65,0.64-1.32,0.94-1.99
			c0.2-0.44,0.38-0.89,0.54-1.34c0.22-0.61,0.04-0.93-0.48-1.3c-0.6-0.42-1.18-0.31-1.82-0.19c-0.44,0.08-0.79,0.26-1.15,0.5
			c-0.19,0.13-0.46,0.13-0.68,0.22c-0.13,0.05-0.3,0.06-0.35,0.24c-0.02,0.07-0.1,0.13-0.17,0.13c-0.33-0.01-0.5,0.19-0.62,0.46
			c-0.02,0.05-0.07,0.11-0.12,0.13c-0.48,0.18-0.41,0.8-0.83,1.03c0.08,0.33-0.1,0.29-0.31,0.24c-0.06-0.01-0.19,0.08-0.13,0.13
			c0.21,0.2-0.04,0.3-0.06,0.45c-0.02,0.14-0.05,0.22-0.22,0.16c-0.15-0.06-0.22,0.04-0.24,0.18c-0.02,0.19-0.11,0.37-0.06,0.57
			c0.05,0.19-0.04,0.33-0.23,0.37c-0.14,0.03-0.23,0.11-0.34,0.17c-0.23,0.12-0.34,0.27-0.19,0.51c0.13,0.22-0.09,0.36-0.12,0.54
			c-0.03,0.18-0.07,0.37-0.35,0.31c-0.15-0.03-0.3,0.1-0.27,0.23c0.05,0.21-0.1,0.26-0.18,0.39c-0.23,0.38-0.41,0.8-0.61,1.2
			c-0.01,0.03-0.01,0.06-0.02,0.09c-0.05,0.14,0.21,0.16,0.12,0.29c-0.06,0.09-0.23,0.06-0.27,0.21c-0.01,0.05-0.1,0.12-0.09,0.14
			c0.12,0.2-0.28,0.37-0.03,0.59c0.06,0.06-0.02,0.16-0.11,0.21c-0.29,0.17-0.34,0.53-0.57,0.75c-0.02,0.02-0.03,0.06-0.02,0.08
			c0.13,0.38-0.13,0.48-0.41,0.6c-0.3,0.14-0.51,0.4-0.68,0.67c-0.08,0.13-0.17,0.16-0.3,0.21c-0.73,0.3-1.51,0.31-2.28,0.35
			c-0.45,0.02-0.86-0.13-1.24-0.35c-0.62-0.36-0.83-0.96-0.62-1.66c0.11-0.39,0.29-0.76,0.47-1.12c0.53-1.08,1.05-2.16,1.61-3.21
			c0.39-0.74,0.73-1.51,1.14-2.24c0.23-0.41,0.41-0.86,0.62-1.29c0.72-1.42,1.41-2.85,2.12-4.28c0.26-0.51,0.69-0.87,1.14-1.2
			c1.27-0.93,2.64-1.07,4.06-0.36c0.14,0.07,0.27,0.1,0.43,0.07c0.28-0.04,0.49,0.07,0.69,0.3c0.18,0.22,0.46,0.37,0.75,0.45
			c0.79,0.2,1.54,0.07,2.24-0.34c0.17-0.1,0.34-0.2,0.53-0.24c0.41-0.09,0.78-0.29,1.16-0.47c0.04-0.02,0.08-0.05,0.12-0.06
			c0.86-0.13,1.71-0.28,2.59-0.14c0.62,0.1,1.19,0.3,1.67,0.72c0.55,0.49,0.81,1.08,0.71,1.81c-0.03,0.22-0.12,0.43,0.06,0.63
			c0.04,0.05,0.02,0.13-0.05,0.15c-0.4,0.1-0.26,0.41-0.19,0.62c0.09,0.28-0.23,0.4-0.17,0.64c-0.66-0.07-0.44,0.58-0.69,0.85
			C293.71,615.72,293.73,615.74,293.73,615.76z"/>
		<path class="st1" d="M228.67,624.72c0.06-0.26,0.27-0.55,0.31-0.9c0.02-0.15,0.12-0.28,0.23-0.38c0.18-0.17,0.3-0.39,0.36-0.62
			c0.1-0.4,0.39-0.72,0.41-1.17c0.01-0.23,0.19-0.47,0.35-0.67c0.15-0.18,0.27-0.36,0.28-0.59c0.02-0.29,0.25-0.45,0.34-0.7
			c0.15-0.41,0.3-0.85,0.7-1.11c0.04-0.02,0.07-0.07,0.08-0.1c0.42-0.96,0.99-1.85,1.45-2.8c0.53-1.1,1-2.25,1.75-3.24
			c0.18-0.24,0.37-0.47,0.58-0.68c1.01-1.03,2.25-1.15,3.58-0.91c0.68,0.12,1.32,0.42,2.03,0.38c0.48-0.03,0.97-0.03,1.45-0.02
			c0.57,0,1.14-0.09,1.71,0.08c0.74,0.22,1.05,0.58,1.07,1.35c0.01,0.21,0.02,0.42,0.01,0.63c-0.01,0.21,0.01,0.45-0.28,0.55
			c-0.08,0.03-0.17,0.15-0.18,0.24c-0.1,0.52-0.58,0.65-0.93,0.9c-0.17,0.12-0.37,0.17-0.59,0.21c-0.87,0.16-1.71,0.43-2.55,0.7
			c-0.73,0.24-1.36,0.69-1.99,1.12c-0.18,0.13-0.14,0.44-0.41,0.49c-0.19,0.45-0.67,0.71-0.77,1.22c-0.01,0.06-0.02,0.14-0.08,0.15
			c-0.46,0.13-0.54,0.56-0.72,0.9c-0.56,1.06-1.06,2.16-1.62,3.23c-0.24,0.46-0.48,0.93-0.62,1.44c-0.01,0.04-0.01,0.1-0.04,0.13
			c-0.41,0.35-0.46,0.9-0.73,1.33c-0.37,0.6-0.84,1.09-1.47,1.41c-1.06,0.54-2.18,0.55-3.31,0.31c-0.38-0.08-0.63-0.32-0.76-0.73
			c-0.22-0.69-0.04-1.3,0.24-1.91C228.58,624.89,228.61,624.84,228.67,624.72z"/>
		<path class="st1" d="M229.88,613.63c-0.41,0.05-0.49,0.14-0.52,0.52c-0.01,0.12,0,0.24,0.01,0.36c0.01,0.13,0.06,0.26-0.1,0.36
			c-0.09,0.05-0.13,0.17-0.13,0.28c0,0.1-0.03,0.18-0.1,0.24c-0.55,0.46-0.74,1.14-1.1,1.71c-0.1,0.16-0.21,0.34-0.35,0.46
			c-0.23,0.19-0.31,0.43-0.39,0.69c-0.14,0.46-0.45,0.85-0.58,1.31c-0.28,0.15-0.3,0.51-0.57,0.67c-0.14,0.09-0.18,0.24-0.22,0.38
			c-0.11,0.33-0.3,0.61-0.5,0.9c-0.41,0.62-0.8,1.26-1.18,1.9c-0.38,0.63-0.71,1.29-0.9,2.01c-0.09,0.35-0.36,0.58-0.54,0.87
			c-0.24,0.41-0.4,0.86-0.8,1.18c-0.18,0.14-0.13,0.24,0.17,0.44c-0.13,0.14-0.17,0.45-0.48,0.18c-0.07-0.06-0.1,0.03-0.14,0.06
			c-0.05,0.04-0.09,0.1-0.15,0.08c-0.5-0.17-0.91,0.18-1.37,0.26c-0.46,0.08-0.92,0.16-1.38,0.15c-0.56-0.01-1.01-0.33-1.3-0.79
			c-0.21-0.33-0.08-0.73,0.01-1.09c0.21-0.88,0.66-1.66,1.04-2.47c0.35-0.76,0.82-1.46,1.06-2.28c0.04-0.14,0.14-0.27,0.23-0.39
			c0.24-0.34,0.49-0.68,0.61-1.09c0.09-0.29,0.25-0.53,0.43-0.77c0.19-0.26,0.25-0.61,0.42-0.89c0.17-0.27,0.33-0.54,0.45-0.83
			c0.12-0.29,0.29-0.56,0.43-0.84c0.21-0.42,0.33-0.89,0.58-1.3c0.21-0.35,0.42-0.69,0.59-1.06c0.25-0.56,0.58-1.08,0.95-1.57
			c0.74-0.95,1.64-1.71,2.86-1.97c0.61-0.13,1.24-0.24,1.87-0.12c0.51,0.09,0.95,0.27,1.15,0.81c0.12,0.33,0.07,0.68-0.05,0.96
			C229.8,613.21,229.81,613.41,229.88,613.63z"/>
		<path class="st1" d="M269.72,621.51c-0.08,0-0.17-0.07-0.23,0.05c-0.09,0.17-0.21,0.33-0.29,0.5c-0.33,0.67-0.65,1.35-0.97,2.03
			c-0.04,0.08-0.1,0.18-0.08,0.25c0.06,0.26-0.09,0.43-0.19,0.64c-0.46,1-1.37,1.27-2.32,1.48c-0.63,0.14-1.27,0.21-1.92,0.16
			c-0.4-0.03-0.72-0.21-1-0.46c-0.35-0.31-0.42-0.88-0.21-1.38c0.26-0.63,0.61-1.2,0.93-1.8c0.42-0.79,0.89-1.56,1.27-2.38
			c0.35-0.73,0.75-1.44,1.16-2.14c0.29-0.49,0.49-1.02,0.79-1.51c0.5-0.81,0.95-1.66,1.41-2.5c0.32-0.58,0.62-1.16,0.94-1.74
			c0.53-0.98,1.27-1.73,2.35-2.11c0.23-0.08,0.45-0.17,0.7-0.08c0.07,0.03,0.18,0,0.26-0.03c0.55-0.14,1.07,0,1.57,0.23
			c0.43,0.19,0.71,0.46,0.47,1.07c-0.07,0.19-0.08,0.38-0.06,0.56c0.03,0.34-0.1,0.59-0.31,0.84c-0.21,0.26-0.46,0.5-0.45,0.89
			c0,0.25-0.3,0.34-0.39,0.57c-0.05,0.13-0.33,0.16-0.18,0.39c-0.19,0.16-0.25,0.41-0.42,0.58c-0.2,0.2-0.3,0.44-0.39,0.7
			c-0.12,0.34-0.1,0.74-0.42,1c-0.03,0.46-0.35,0.8-0.51,1.2c-0.16,0.38-0.2,0.82-0.47,1.16c-0.05,0.07-0.06,0.13-0.17,0.17
			c-0.24,0.1-0.39,0.32-0.5,0.55c-0.09,0.18-0.19,0.38-0.01,0.58c0.05,0.05,0.06,0.15-0.01,0.2c-0.11,0.09-0.14-0.04-0.2-0.09
			c-0.02-0.02-0.05-0.02-0.11-0.04c-0.01,0.15,0.1,0.32-0.02,0.45L269.72,621.51z"/>
		<path class="st1" d="M235.98,601.72c0.42,0.19,0.68,0.42,0.62,0.88c-0.02,0.12,0,0.24,0,0.36c0.05,0.71-0.24,1.24-0.81,1.67
			c-0.28,0.21-0.6,0.35-0.87,0.57c-0.08,0.06-0.19,0.1-0.29,0.12c-0.79,0.21-1.61,0.31-2.41,0.45c-0.64,0.11-1.09-0.22-1.41-0.65
			c-0.24-0.33-0.25-0.8-0.09-1.24c0.14-0.39,0.41-0.7,0.7-0.97c0.99-0.94,2.24-1.24,3.55-1.35
			C235.34,601.52,235.69,601.62,235.98,601.72z"/>
		<path class="st1" d="M278.98,602.81c0.33,0.04,0.5,0.44,0.85,0.54c0.09,0.28,0.19,0.55,0.13,0.86c-0.16,0.92-0.83,1.36-1.6,1.69
			c-0.17,0.07-0.34,0.14-0.48,0.25c-0.4,0.32-0.87,0.35-1.34,0.44c-0.01,0-0.03-0.01-0.04,0c-0.79,0.2-1.37-0.21-1.91-0.7
			c-0.26-0.23-0.33-0.51-0.3-0.88c0.09-0.98,0.71-1.53,1.49-1.97C276.8,602.48,277.84,602.34,278.98,602.81z"/>
		<path class="st1" d="M269.71,621.52c0.05,0.02,0.11,0.03,0.11,0.1c0,0.01-0.05,0.03-0.06,0.02c-0.06-0.02-0.09-0.06-0.04-0.12
			C269.72,621.51,269.71,621.52,269.71,621.52z"/>
	</g>
</g>
<path class="st2" d="M241.03,633.5l205.81,79.67c0,0-53.11,38.51-357.17,80.99L48.5,778.23L241.03,633.5z"/>
<polygon class="st2" points="602.14,174.72 630.73,99.07 659.94,110.86 740.83,281.13 "/>
<path class="st3" d="M446.83,90.69l86.97,182.31l321.32,168.38c0,0,45.14,20.17,92.94,26.8c47.8,6.64,232.36,30.54,232.36,30.54
	S893.63,354,766.16,263.71S572.31,112.86,446.83,90.69z"/>
<path class="st2" d="M855.13,416.41c0,0,38.51,33.19,29.21,83.65s155.35,90.29,155.35,90.29l305.39,55.77l-164.64-147.38
	c0,0-9.29-6.64-67.72-34.52C1085.39,451.17,855.13,416.41,855.13,416.41z"/>
<path class="st3" d="M645.34,458.9c0,0-14.61-3.98-22.57,15.93c-7.97,19.92-19.25,59.09-19.25,59.09s-6.64,31.87,9.29,41.16
	c15.93,9.29,80.53,45.93,80.53,45.93l52.24,47.02l390.37,163.32l199.17,17.26l189.87,29.21c0,0,139.42,31.87,181.91,26.56
	c0,0,147.27,27.75,163.26,0.6c15.99-27.15-200.44-149.31-200.44-149.31s-33.19-15.93-43.82-33.19
	c-10.62-17.26-39.83-45.14-148.71-77.01c-108.88-31.87-495.26-143.4-600.16-159.33S645.34,458.9,645.34,458.9z"/>
<path class="st2" d="M590.9,747.02c0,0,92.94,59.75,132.78-6.64S706.58,633.5,706.58,633.5l800.48,240.99
	c0,0-51.78-17.26-197.84,9.29c-119.02,21.64-251.91,39.92-297.02,45.94c-7.02,0.94-13.8,2.98-20.39,5.58
	c-7.29,2.88-26.04,3.36-72.96-19.66C848.49,881.13,590.9,747.02,590.9,747.02z"/>
<polygon class="st2" points="564.34,190.68 500.44,223.52 686.5,267.7 "/>
<g>
	<circle cx="1286.65" cy="745.7" r="21.24"/>
</g>
<g>
	<circle cx="1396.86" cy="777.56" r="21.24"/>
</g>
<g>
	<circle cx="1507.07" cy="805.45" r="21.24"/>
</g>
<ellipse cx="1424.08" cy="700.55" rx="13.94" ry="11.95"/>
<ellipse cx="1522.33" cy="733.75" rx="13.94" ry="11.95"/>
<ellipse cx="1317.86" cy="666.03" rx="13.94" ry="11.95"/>
<path d="M1630.22,849.79l-27.21,2.86c-2.01,0.21-3.49-1.83-2.67-3.67l11.13-24.99c0.82-1.84,3.33-2.11,4.52-0.47l16.08,22.13
	C1633.26,847.27,1632.23,849.57,1630.22,849.79z"/>
<path d="M1662.03,778.59l-27.21,2.86c-2.01,0.21-3.49-1.83-2.67-3.67l11.13-24.99c0.82-1.84,3.33-2.11,4.52-0.47l16.08,22.13
	C1665.07,776.07,1664.04,778.38,1662.03,778.59z"/>
<path d="M1644.77,814.89l-20.96,2.2c-2.01,0.21-3.49-1.83-2.67-3.67l8.57-19.25c0.82-1.84,3.33-2.11,4.52-0.47l12.39,17.05
	C1647.8,812.37,1646.77,814.68,1644.77,814.89z"/>
<path d="M1629.95,829.34l19.01,26.17c1.19,1.63,3.7,1.37,4.52-0.47l13.16-29.55c0.82-1.84-0.66-3.89-2.67-3.67l-32.17,3.38
	C1629.79,825.41,1628.76,827.71,1629.95,829.34z"/>
<path d="M1647.33,791.12l19.01,26.17c1.19,1.63,3.7,1.37,4.52-0.47l13.16-29.55c0.82-1.84-0.66-3.89-2.67-3.67l-32.17,3.38
	C1647.17,787.18,1646.14,789.49,1647.33,791.12z"/>
</svg>
